PathFileType	4	(X/Y/Z)	C:\Users\Basilio\Documents\Thesis Gigler\squatting_fais\c3dfiles\058\SJ_pre5\markers_experimental.trc
DataRate	CameraRate	NumFrames	NumMarkers	Units	OrigDataRate	OrigDataStartFrame	OrigNumFrames
200.000000	200.000000	4	61	mm	200.000000	617	1235
Frame#	Time	FHD			LBHD			RBHD			C7			T10			CLAV			LSHO			LUUPA			LMUPA			LDUPA			LLEP			LMEP			LRAD			LUL			LRFIN			RSHO			RUPA1			RMUPA			RDUPA			RLEP			RMEP			RRAD			RUL			RUFIN			LASI			RASI			USACR			LSACR			RSACR			LTHI1			LTHI2			LTHI3			LTHI4			LLFC			LMFC			LTIB1			LTIB2			LTIB3			LTIB4			LLMAL			LMMAL			LHEE			LMT1			LMT2			LMT5			RTHI			RTHI2			RTHI3			RTHI4			RLFC			RMFC			RTIB1			RTIB2			RTIB3			RTIB4			RLMAL			RMMAL			RHEE			RMT1			RMT2			RMT5			
		X1	Y1	Z1	X2	Y2	Z2	X3	Y3	Z3	X4	Y4	Z4	X5	Y5	Z5	X6	Y6	Z6	X7	Y7	Z7	X8	Y8	Z8	X9	Y9	Z9	X10	Y10	Z10	X11	Y11	Z11	X12	Y12	Z12	X13	Y13	Z13	X14	Y14	Z14	X15	Y15	Z15	X16	Y16	Z16	X17	Y17	Z17	X18	Y18	Z18	X19	Y19	Z19	X20	Y20	Z20	X21	Y21	Z21	X22	Y22	Z22	X23	Y23	Z23	X24	Y24	Z24	X25	Y25	Z25	X26	Y26	Z26	X27	Y27	Z27	X28	Y28	Z28	X29	Y29	Z29	X30	Y30	Z30	X31	Y31	Z31	X32	Y32	Z32	X33	Y33	Z33	X34	Y34	Z34	X35	Y35	Z35	X36	Y36	Z36	X37	Y37	Z37	X38	Y38	Z38	X39	Y39	Z39	X40	Y40	Z40	X41	Y41	Z41	X42	Y42	Z42	X43	Y43	Z43	X44	Y44	Z44	X45	Y45	Z45	X46	Y46	Z46	X47	Y47	Z47	X48	Y48	Z48	X49	Y49	Z49	X50	Y50	Z50	X51	Y51	Z51	X52	Y52	Z52	X53	Y53	Z53	X54	Y54	Z54	X55	Y55	Z55	X56	Y56	Z56	X57	Y57	Z57	X58	Y58	Z58	X59	Y59	Z59	X60	Y60	Z60	X61	Y61	Z61	

618	3.085	87.6802444458008	1095.46337890625	-832.660339355469	-74.93852996826173	1071.010498046875	-903.893981933594	99.46628570556643	1102.462280273438	-974.2539672851565	-118.4600906372071	1009.190185546875	-917.5518188476565	-381.9221191406251	871.0760498046877	-895.5687255859377	-36.2587013244629	853.952819824219	-898.0710449218752	1.354686975479126	887.3807373046877	-1061.234008789063	-156.4376068115235	912.2529296875002	-1232.356323242188	-177.8269958496094	866.0810546875002	-1234.520751953125	-216.5438232421876	898.530456542969	-1266.895263671875	-299.3854980468751	886.3697509765627	-1297.905395507813	-332.3056030273438	941.6426391601565	-1252.420776367188	-457.4255676269532	775.9967041015627	-1098.494995117188	-404.4095458984376	735.7776489257814	-1077.34912109375	-473.1949462890626	715.1072998046876	-1149.963745117188	-3.979855775833131	911.6643066406252	-737.4663085937501	-165.5033111572266	959.094909667969	-582.1492309570314	-186.62841796875	913.1751098632815	-577.6824340820314	-224.8072052001954	945.208190917969	-545.7871704101564	-293.2941284179688	948.1719360351565	-514.6616210937501	-342.8395080566407	987.180603027344	-580.9019165039064	-424.5044250488282	774.8233032226565	-677.5888671875001	-427.5018005371095	722.8110351562501	-614.8037719726564	-380.6246337890626	719.5335083007814	-708.5006103515626	nan	nan	nan	nan	nan	nan	-509.7432250976564	799.315124511719	-883.666198730469	-538.3556518554689	782.3481445312502	-911.1052856445315	-537.1170043945314	782.4555664062502	-854.2216796875002	-361.7609252929688	580.2649536132814	-1134.179809570313	-277.8806762695313	570.9592285156251	-1151.849731445313	-250.7340545654297	602.0462646484376	-1125.294067382813	-247.7588195800782	517.7908935546876	-1162.709594726563	-175.1657409667969	469.9802246093751	-1167.6875	-142.2627410888672	453.8479614257814	-1049.9833984375	-144.4457702636719	333.0954589843751	-1142.823852539063	-216.9536132812501	329.3737487792969	-1191.626708984375	-182.0082244873047	305.4551696777344	-1173.152221679688	-223.8746032714844	235.3796691894532	-1146.534790039063	-364.3495178222657	89.9459686279297	-1155.089233398438	-328.8731079101563	94.02478790283205	-1069.761962890625	-428.4534301757814	50.06941986083986	-1101.30126953125	-203.0906066894532	62.4891815185547	-1119.247192382813	-206.1075134277344	60.50387191772462	-1165.908935546875	-260.4911499023438	36.05057907104493	-1213.90087890625	-450.578338623047	573.7227172851564	-654.9467163085939	-386.266082763672	584.0795898437501	-642.0197753906251	-369.4319152832032	611.8861694335939	-647.8004150390626	-329.3840637207032	524.2520751953126	-629.4612426757814	-193.7622375488282	458.136444091797	-608.2171020507814	-139.7807922363282	451.1697692871095	-730.4360351562501	-189.7368927001953	279.0682067871094	-688.6213378906251	-267.0671386718751	226.3520965576172	-627.6340942382814	-234.4183502197266	208.4614868164063	-655.6177368164064	-256.5220336914063	171.0042419433594	-693.1719360351564	-355.4748840332032	93.1038055419922	-657.6806030273439	-313.5995483398438	99.85755920410159	-740.0432739257814	-420.8929138183595	52.23628997802736	-720.8109130859376	-205.7700500488282	56.2141571044922	-682.2277221679689	-214.5532226562501	61.68028640747072	-630.6087036132814	-265.1737976074219	25.17155456542969	-586.7866210937501	
619	3.09	87.90528106689455	1095.173828125	-832.6174926757815	-74.59262847900392	1070.5556640625	-903.7947387695315	99.93379211425784	1102.103271484375	-974.235046386719	-118.0997543334961	1008.700988769531	-917.5421142578127	-381.5170593261719	870.8333740234377	-895.534362792969	-36.08472061157227	853.4600830078127	-897.9945068359377	1.578519940376282	887.1525878906252	-1061.1162109375	-156.0510559082032	912.0545043945315	-1232.31884765625	-177.4984283447266	865.7767333984377	-1234.584106445313	-216.2098236083985	898.2194824218752	-1266.9453125	-298.9153747558594	886.3113403320315	-1297.781982421875	-331.8488159179688	941.409362792969	-1252.370971679688	-457.1289367675782	775.8953247070315	-1098.546020507813	-404.1519470214845	735.5551757812501	-1077.350952148438	-472.9226379394532	715.0186157226564	-1150.034790039063	-3.550512075424195	911.109069824219	-737.3402099609376	-165.0355377197266	958.8753662109377	-582.2351684570314	-186.4647369384766	912.8496704101565	-577.6269531250001	-224.4978027343751	944.9478149414065	-545.8218994140626	-293.0797729492188	948.1212158203127	-514.6369018554689	-342.5397949218751	987.088562011719	-581.0023803710939	-424.2778625488282	774.7925415039065	-677.6237182617189	-427.2972106933595	722.7575073242189	-614.8308715820314	-380.5477600097657	719.5427246093751	-708.5060424804689	nan	nan	nan	nan	nan	nan	-509.5090332031251	799.2532348632815	-883.7187500000002	-538.4041137695314	782.2408447265627	-911.1213378906252	-537.0961914062501	782.3438720703127	-854.2170410156252	-361.4500732421876	580.1925659179689	-1134.254028320313	-277.6255187988282	570.7928466796876	-1151.893188476563	-250.4702606201172	601.9666137695314	-1125.367553710938	-247.4861907958985	517.6223144531251	-1162.778198242188	-175.0520629882813	469.8770141601564	-1167.759521484375	-141.6250915527344	453.9593200683595	-1049.918823242188	-144.1105499267578	333.0073852539063	-1143.03173828125	-216.8271484375001	329.2848815917969	-1191.705444335938	-181.9523010253907	305.1864929199219	-1173.136962890625	-223.7553710937501	235.3253784179688	-1146.558349609375	-364.3222961425782	89.98211669921876	-1155.089721679688	-328.7971496582032	93.96971130371095	-1069.832763671875	-428.4021606445314	50.10759353637697	-1101.311767578125	-203.123764038086	62.53446578979494	-1119.243774414063	-206.5225067138672	60.97923278808595	-1165.736694335938	-260.4541625976563	36.02380752563477	-1213.916381835938	-450.4460754394532	573.5103149414064	-654.9671020507814	-385.9453735351564	583.9483032226564	-642.1683959960939	-369.4112854003907	611.7169189453126	-647.8546142578126	-329.2396545410157	524.1491699218751	-629.4926147460939	-193.5292510986329	457.9954528808595	-608.2863159179689	-139.4925842285157	451.0545349121095	-730.5388183593751	-189.6443939208985	279.0619812011719	-688.6643676757814	-266.9131164550782	226.285629272461	-627.6612548828126	-234.4347381591797	208.3889923095704	-655.6516723632814	-256.5191040039063	170.95556640625	-693.2649536132814	-355.3922729492188	93.13415527343751	-657.7238159179689	-313.6024169921876	99.85801696777347	-740.0439453125001	-420.8768615722657	52.24701309204103	-720.8121948242189	-205.7650299072266	56.20156097412111	-682.2311401367189	-214.5568847656251	61.68034744262697	-630.5819702148439	-265.2439575195313	25.20076751708985	-586.7775268554689	
620	3.095	88.4754104614258	1094.864379882813	-832.6426391601565	-74.18596649169923	1070.09716796875	-903.7388916015627	100.3083648681641	1101.715576171875	-974.229675292969	-117.7640075683594	1008.257568359375	-917.473327636719	-381.2078247070313	870.5700683593752	-895.5925903320315	-35.49571228027344	852.7733154296877	-898.0808105468752	2.241626977920533	886.8624267578127	-1061.212768554688	-155.5267028808594	911.9072875976565	-1232.254638671875	-177.1400299072266	865.423522949219	-1234.709350585938	-215.5351867675782	897.9786376953127	-1266.959350585938	-298.5955505371094	885.9654541015627	-1297.86767578125	-331.4712219238282	941.177185058594	-1252.356079101563	-456.8419799804689	775.8725585937502	-1098.621704101563	-404.3013305664064	735.3320922851564	-1077.134033203125	-472.5930786132814	714.8432006835939	-1150.157470703125	-3.272095918655396	910.795837402344	-737.3033447265626	-164.7542724609375	958.4771728515627	-582.2211303710939	-186.3485565185547	912.7495727539065	-577.5964355468751	-224.0897827148438	944.789978027344	-545.9396362304689	-292.7181091308594	947.977233886719	-514.6951904296876	-342.1708679199219	986.9173583984377	-581.1182861328126	-424.1864013671876	774.6706542968752	-677.6472778320314	-426.9730224609376	722.6347045898439	-614.9379272460939	-380.2639465332032	719.4617919921876	-708.5645751953126	nan	nan	nan	nan	nan	nan	-509.4851684570314	798.9044189453127	-883.7633056640627	-537.7545776367189	782.1590576171877	-911.292907714844	-536.6997680664064	782.2827758789065	-854.3498535156252	-361.2872314453126	580.0921630859376	-1134.290771484375	-277.1366882324219	570.0538940429689	-1152.034790039063	-250.2367401123047	601.8267822265626	-1125.426147460938	-247.1981048583985	517.4939575195314	-1162.827514648438	-174.7844696044922	469.8104858398439	-1167.839965820313	-141.0701751708985	453.8213806152345	-1049.826416015625	-144.0506744384766	332.9448852539063	-1143.0361328125	-216.6697387695313	329.1938171386719	-1191.755615234375	-181.7953338623047	305.1186523437501	-1173.208862304688	-223.6851196289063	235.2913665771485	-1146.555297851563	-364.4089660644532	89.98088836669923	-1155.073974609375	-328.7655639648438	93.98616790771486	-1069.846557617188	-428.4327697753907	50.11527633666994	-1101.324829101563	-203.1080780029297	62.54394912719728	-1119.240356445313	-206.1339111328126	60.4962844848633	-1165.906372070313	-260.5113525390626	36.02333450317384	-1213.89111328125	-450.2976074218751	573.3919067382814	-655.0640869140626	-385.8818664550782	583.8284912109376	-642.2387084960939	-369.3435058593751	611.6160278320314	-647.8990478515626	-329.1253662109376	524.1565551757814	-629.5704956054689	-193.1011047363282	458.0166320800782	-608.4350585937501	-139.2393951416016	450.9077758789064	-730.7094726562501	-189.5220336914063	278.9992370605469	-688.7171630859376	-266.7042236328126	226.1988372802735	-627.7630615234376	-234.3987274169922	208.2536315917969	-655.7150878906251	-256.4266662597657	170.9244842529297	-693.3137207031251	-355.3433532714844	93.14795684814455	-657.7226562500001	-313.6246948242188	99.88509368896487	-740.1419067382814	-420.8764648437501	52.23047637939455	-720.8361816406251	-205.7650909423829	56.19356536865236	-682.2318115234376	-214.5487365722657	61.67384338378908	-630.6398315429689	-265.1780700683594	25.17695045471192	-586.8163452148439	
621	3.1	88.97077941894533	1094.445190429688	-832.5821533203127	-73.79607391357423	1069.811279296875	-903.7481689453127	100.6222839355469	1101.321899414063	-974.2064208984377	-117.3063125610352	1007.899291992188	-917.3867797851565	-380.9331665039063	870.2871093750002	-895.5571289062502	-34.92797851562501	852.748962402344	-897.9849243164065	2.585417270660401	886.5430297851565	-1061.1591796875	-155.09326171875	911.6350708007815	-1232.251586914063	-176.75439453125	865.117614746094	-1234.644409179688	-215.3235168457032	897.7581787109377	-1266.83203125	-298.0883483886719	885.7247314453127	-1297.905639648438	-331.0438537597657	940.932067871094	-1252.333129882813	-456.475311279297	775.770935058594	-1098.69091796875	-404.0446166992189	735.1152954101564	-1077.136840820313	-472.3554687500001	714.7181396484376	-1150.214599609375	-2.902176141738892	910.3994140625002	-737.2294311523439	-164.5469207763672	958.1679687500002	-582.1534423828126	-185.8079833984375	912.3616943359377	-577.6629028320314	-223.8606109619141	944.5275878906252	-545.8739624023439	-292.3309936523438	947.8301391601565	-514.7736206054689	-341.8112487792969	986.7090454101565	-581.1979370117189	-423.9219360351564	774.4939575195315	-677.6661987304689	-426.8860168457032	722.5936889648439	-614.9447021484376	-380.2003479003907	719.4302978515626	-708.5755004882814	nan	nan	nan	nan	nan	nan	-509.5316162109376	798.7395019531252	-883.7901000976565	-537.2644653320314	781.9483642578127	-911.4250488281252	-536.3981323242189	782.1708984375002	-854.482604980469	-361.0631713867188	579.9448242187501	-1134.376098632813	-276.8179321289063	569.8720092773439	-1152.081787109375	-250.0452270507813	601.7387695312501	-1125.5146484375	-247.0386199951172	517.3513183593751	-1162.857543945313	-174.5799865722657	469.6571350097657	-1167.879760742188	-140.9313659667969	453.8289794921876	-1049.869873046875	-143.955810546875	332.6301574707032	-1142.71923828125	-216.4642486572266	329.0524597167969	-1191.73974609375	-181.548568725586	305.8278808593751	-1173.367065429688	-223.405746459961	234.460433959961	-1146.532348632813	-364.3339233398438	89.95016479492189	-1155.078735351563	-328.7060241699219	93.97389221191408	-1069.847778320313	-428.4147949218751	50.06812667846681	-1101.330810546875	-203.1159057617188	62.55148696899415	-1119.21044921875	-206.4156646728516	61.00819015502931	-1165.738403320313	-260.4972839355469	36.05473327636719	-1213.900268554688	-450.1505432128907	573.3398437500001	-655.1478271484376	-385.6863403320314	583.6799926757814	-642.3520507812501	-369.1150512695313	611.4029541015626	-647.9638061523439	-328.7214965820313	524.0454101562501	-629.7265625000001	-192.9729003906251	457.9731445312501	-608.5142211914064	-139.0795593261719	450.7297668457032	-730.7843017578126	-189.3701477050782	278.9358520507813	-688.7753906250001	-266.5034790039063	226.2396850585938	-627.8328857421876	-234.3266143798829	208.1812896728516	-655.7752685546876	-256.4095153808594	170.8829803466797	-693.4328002929689	-355.3015441894532	93.18630981445314	-657.7846679687501	-313.6685791015626	99.81362915039065	-740.1683959960939	-420.8493957519532	52.23454666137697	-720.8462524414064	-205.7407989501954	56.1505470275879	-682.3021850585939	-214.5570983886719	61.68056488037111	-630.6423339843751	-265.1623229980469	25.25832557678223	-586.7849121093751	
